<?xml version="1.0" encoding="UTF-8" standalone="no"?>
<!-- Created with Inkscape (http://www.inkscape.org/) -->

<svg
   xmlns:dc="http://purl.org/dc/elements/1.1/"
   xmlns:cc="http://creativecommons.org/ns#"
   xmlns:rdf="http://www.w3.org/1999/02/22-rdf-syntax-ns#"
   xmlns:svg="http://www.w3.org/2000/svg"
   xmlns="http://www.w3.org/2000/svg"
   xmlns:xlink="http://www.w3.org/1999/xlink"
   xmlns:sodipodi="http://sodipodi.sourceforge.net/DTD/sodipodi-0.dtd"
   xmlns:inkscape="http://www.inkscape.org/namespaces/inkscape"
   width="37.430836"
   height="19.543423"
   id="svg46900"
   version="1.1"
   inkscape:version="0.48.4 r9939"
   sodipodi:docname="New document 87">
  <defs
     id="defs46902">
    <linearGradient
       inkscape:collect="always"
       xlink:href="#linearGradient17498-7-6"
       id="linearGradient30635"
       gradientUnits="userSpaceOnUse"
       gradientTransform="matrix(-0.95144372,0,0,0.95144372,474.95045,65.110288)"
       x1="21.075787"
       y1="11.913565"
       x2="33.869564"
       y2="48.13636" />
    <linearGradient
       id="linearGradient17498-7-6">
      <stop
         style="stop-color:#d3d7cf;stop-opacity:1"
         offset="0"
         id="stop17500-8-7" />
      <stop
         style="stop-color:#eeeeec;stop-opacity:1"
         offset="0.28330287"
         id="stop17502-3-3" />
      <stop
         style="stop-color:#babdb6;stop-opacity:1"
         offset="0.33564273"
         id="stop17504-9-0" />
      <stop
         id="stop17512-4-2"
         offset="0.6530382"
         style="stop-color:#ffffff;stop-opacity:1" />
      <stop
         style="stop-color:#babdb6;stop-opacity:1"
         offset="1"
         id="stop17514-4-0" />
    </linearGradient>
    <linearGradient
       inkscape:collect="always"
       xlink:href="#linearGradient17780-3-5"
       id="linearGradient30637"
       gradientUnits="userSpaceOnUse"
       gradientTransform="matrix(-0.95144372,0,0,0.95144372,465.43601,71.770395)"
       x1="7.4464869"
       y1="29.420902"
       x2="24.169197"
       y2="29.805933" />
    <linearGradient
       id="linearGradient17780-3-5"
       inkscape:collect="always">
      <stop
         id="stop17782-6-2"
         offset="0"
         style="stop-color:#888a85;stop-opacity:1;" />
      <stop
         id="stop17784-1-5"
         offset="1"
         style="stop-color:#e2e2e1;stop-opacity:1" />
    </linearGradient>
    <linearGradient
       inkscape:collect="always"
       xlink:href="#linearGradient6958-7"
       id="linearGradient30639"
       gradientUnits="userSpaceOnUse"
       gradientTransform="matrix(0,0.59465232,0.64330535,0,430.13529,86.907788)"
       x1="17"
       y1="45.248375"
       x2="17"
       y2="30.759407" />
    <linearGradient
       inkscape:collect="always"
       id="linearGradient6958-7">
      <stop
         style="stop-color:#000000;stop-opacity:1"
         offset="0"
         id="stop6960-9" />
      <stop
         style="stop-color:#888a85;stop-opacity:0;"
         offset="1"
         id="stop6962-8" />
    </linearGradient>
    <linearGradient
       inkscape:collect="always"
       xlink:href="#linearGradient4542-4"
       id="linearGradient30641"
       gradientUnits="userSpaceOnUse"
       gradientTransform="matrix(0.69195933,0,0,0.95144277,83.480431,432.6727)"
       x1="33.120464"
       y1="20.5"
       x2="22.328388"
       y2="20.5" />
    <linearGradient
       inkscape:collect="always"
       id="linearGradient4542-4">
      <stop
         style="stop-color:#888a85;stop-opacity:1"
         offset="0"
         id="stop4544-5" />
      <stop
         style="stop-color:#888a85;stop-opacity:0"
         offset="1"
         id="stop4546-5" />
    </linearGradient>
  </defs>
  <sodipodi:namedview
     id="base"
     pagecolor="#ffffff"
     bordercolor="#666666"
     borderopacity="1.0"
     inkscape:pageopacity="0.0"
     inkscape:pageshadow="2"
     inkscape:zoom="7.9195959"
     inkscape:cx="13.218351"
     inkscape:cy="-11.054746"
     inkscape:document-units="px"
     inkscape:current-layer="layer1"
     showgrid="false"
     fit-margin-top="1"
     fit-margin-left="1"
     fit-margin-right="1"
     fit-margin-bottom="1"
     inkscape:window-width="1278"
     inkscape:window-height="1003"
     inkscape:window-x="1366"
     inkscape:window-y="19"
     inkscape:window-maximized="0" />
  <metadata
     id="metadata46905">
    <rdf:RDF>
      <cc:Work
         rdf:about="">
        <dc:format>image/svg+xml</dc:format>
        <dc:type
           rdf:resource="http://purl.org/dc/dcmitype/StillImage" />
        <dc:title></dc:title>
      </cc:Work>
    </rdf:RDF>
  </metadata>
  <g
     inkscape:label="Layer 1"
     inkscape:groupmode="layer"
     id="layer1"
     transform="translate(-61.278255,-245.44051)">
    <g
       style="display:inline"
       transform="matrix(0,1.2230709,1.2230709,0,-44.052471,-298.51402)"
       id="g30427">
      <path
         inkscape:connector-curvature="0"
         d="m 452.65099,87.469216 c 3.72859,-10e-7 6.7493,3.004445 6.7493,6.719571 0,2.681357 -1.71423,5.107977 -3.9933,6.189683 l 0,1.42716 0,2.85433 0,0.95145 -1.71536,0.88668 0,0.95144 1.71536,1.01621 0,0.95144 -1.23964,1.36241 1.23964,1.49192 0,0.95145 -2.19109,2.16192 -2.11957,0 -0.95144,-1.75096 0,-13.32021 c -2.25723,-1.08982 -4.06481,-3.518934 -4.06481,-6.184388 0,-3.715125 2.84231,-6.660106 6.57091,-6.660106 z m 0.0892,1.902887 c -1.05039,0 -1.90288,0.852494 -1.90288,1.902888 0,1.050394 0.85249,1.902887 1.90288,1.902887 1.0504,0 1.90289,-0.852493 1.90289,-1.902887 0,-1.050394 -0.85249,-1.902888 -1.90289,-1.902888 z"
         id="path30429"
         sodipodi:nodetypes="cscccccccccccccccsccsssc"
         style="color:#000000;fill:url(#linearGradient30635);fill-opacity:1;fill-rule:nonzero;stroke:url(#linearGradient30637);stroke-width:1.03615212px;stroke-linecap:round;stroke-linejoin:miter;stroke-miterlimit:4;stroke-opacity:1;stroke-dasharray:none;stroke-dashoffset:0;marker:none;visibility:visible;display:inline;overflow:visible;enable-background:new" />
      <path
         inkscape:connector-curvature="0"
         d="m 447.50453,94.638268 10.29289,0 c 0,2.625985 -2.30561,4.757219 -5.14644,4.757219 -2.84084,0 -5.14645,-2.131234 -5.14645,-4.757219 z"
         id="path30431"
         style="opacity:0.3;fill:url(#linearGradient30639);fill-opacity:1;fill-rule:evenodd;stroke:none" />
      <rect
         height="0.93363881"
         id="rect30433"
         style="opacity:0.61538463;fill:url(#linearGradient30641);fill-opacity:1;fill-rule:evenodd;stroke:none"
         transform="matrix(0,1,1,0,0,0)"
         width="15.519734"
         x="99.395485"
         y="451.70157" />
      <path
         d="m 452.65625,88.4375 c -3.2185,0 -5.59375,2.465657 -5.59375,5.6875 0,2.227473 1.56929,4.380326 3.5,5.3125 a 0.97010597,0.97010597 0 0 1 0.5625,0.875 l 0,13.0625 0.53125,1.03125 1.15625,0 1.625,-1.59375 0,-0.15625 -1.03125,-1.25 a 0.97010597,0.97010597 0 0 1 0.0312,-1.28125 l 1,-1.09375 -1.25,-0.75 a 0.97010597,0.97010597 0 0 1 -0.46875,-0.84375 l 0,-0.9375 a 0.97010597,0.97010597 0 0 1 0.53125,-0.875 l 1.1875,-0.59375 0,-0.375 0,-2.84375 0,-1.4375 A 0.97010597,0.97010597 0 0 1 455,99.5 c 1.94274,-0.922074 3.4375,-3.046186 3.4375,-5.3125 0,-3.078353 -2.41748,-5.518005 -5.46875,-5.6875 1.46066,0.130113 2.65625,1.289282 2.65625,2.78125 0,1.577296 -1.2977,2.875 -2.875,2.875 -1.5773,0 -2.875,-1.297698 -2.875,-2.875 0,-1.541961 1.25199,-2.787346 2.78125,-2.84375 z"
         id="path30435"
         style="opacity:0.64473685;color:#000000;fill:none;stroke:#ffffff;stroke-width:1.08903146px;stroke-linecap:round;stroke-linejoin:miter;stroke-miterlimit:4;stroke-opacity:1;stroke-dasharray:none;stroke-dashoffset:0;marker:none;visibility:visible;display:inline;overflow:visible;enable-background:new"
         xlink:href="#path4451"
         inkscape:original="M 452.65625 87.46875 C 448.92765 87.46875 446.09375 90.409875 446.09375 94.125 C 446.09375 96.790454 447.89902 99.22268 450.15625 100.3125 L 450.15625 113.625 L 451.09375 115.375 L 453.21875 115.375 L 455.40625 113.21875 L 455.40625 112.28125 L 454.15625 110.78125 L 455.40625 109.40625 L 455.40625 108.46875 L 453.6875 107.4375 L 453.6875 106.5 L 455.40625 105.625 L 455.40625 104.65625 L 455.40625 101.8125 L 455.40625 100.375 C 457.68532 99.293294 459.40625 96.868857 459.40625 94.1875 C 459.40625 90.472374 456.38484 87.468749 452.65625 87.46875 z M 452.75 89.375 C 453.8004 89.375 454.65625 90.230856 454.65625 91.28125 C 454.65625 92.331644 453.8004 93.1875 452.75 93.1875 C 451.69961 93.1875 450.84375 92.331644 450.84375 91.28125 C 450.84375 90.230856 451.69961 89.375 452.75 89.375 z "
         inkscape:radius="-0.97000897"
         sodipodi:type="inkscape:offset"
         inkscape:href="#path4451" />
      <path
         inkscape:connector-curvature="0"
         style="fill:#3263a1;fill-opacity:1;fill-rule:evenodd;stroke:#5880b2;stroke-width:1.00639498;stroke-linecap:butt;stroke-linejoin:round;stroke-miterlimit:4;stroke-opacity:1;stroke-dasharray:none;stroke-dashoffset:0"
         d="m 119.9375,22.46875 c -3.64949,0 -6.59375,2.944263 -6.59375,6.59375 0,0.742191 0.1181,1.459038 0.34375,2.125 l 12.5,0 c 0.22565,-0.665962 0.375,-1.382809 0.375,-2.125 0,-3.649487 -2.97551,-6.59375 -6.625,-6.59375 z m 0.0937,2 c 1.01118,0 1.8125,0.832571 1.8125,1.84375 0,1.011179 -0.80132,1.8125 -1.8125,1.8125 -1.01118,0 -1.84375,-0.801321 -1.84375,-1.8125 0,-1.011179 0.83257,-1.84375 1.84375,-1.84375 z"
         transform="translate(332.77959,65.035535)"
         id="path30437" />
    </g>
  </g>
</svg>
